<svg xmlns="http://www.w3.org/2000/svg" xmlns:xlink="http://www.w3.org/1999/xlink" width="303" zoomAndPan="magnify" viewBox="0 0 227.25 181.499992" height="242" preserveAspectRatio="xMidYMid meet" version="1.0"><defs><g/><clipPath id="8df2c7440c"><path d="M 77 0.0507812 L 147 0.0507812 L 147 86 L 77 86 Z M 77 0.0507812 " clip-rule="nonzero"/></clipPath><clipPath id="ed83e99104"><path d="M 55 22 L 171.597656 22 L 171.597656 112.179688 L 55 112.179688 Z M 55 22 " clip-rule="nonzero"/></clipPath></defs><g clip-path="url(#8df2c7440c)"><path fill="#1089b8" d="M 146.925781 57.082031 C 139.535156 36.101562 122.003906 11.769531 114.140625 0.0742188 C 104.039062 15.101562 77.964844 51.007812 77.964844 73.84375 L 77.964844 76.128906 C 77.964844 78.960938 78.3125 81.722656 78.964844 84.382812 C 80.058594 84.613281 81.148438 84.785156 82.21875 84.902344 C 79.957031 75.667969 81.5 64.640625 86.847656 51.804688 C 83.5 64.679688 82.410156 75.757812 83.5625 85.03125 C 84.242188 85.09375 84.914062 85.132812 85.554688 85.152344 C 97.320312 85.589844 110.085938 81.820312 120.582031 76.746094 C 130.132812 72.128906 139.988281 65.378906 146.914062 57.0625 Z M 146.925781 57.082031 " fill-opacity="1" fill-rule="evenodd"/></g><g clip-path="url(#ed83e99104)"><path fill="#00afef" d="M 150.308594 75.550781 C 149.960938 75.839844 149.597656 76.128906 149.238281 76.417969 C 149.597656 76.128906 149.960938 75.839844 150.308594 75.550781 Z M 149.199219 76.457031 C 148.839844 76.746094 148.46875 77.035156 148.097656 77.324219 C 148.46875 77.035156 148.839844 76.746094 149.199219 76.457031 Z M 148.078125 77.335938 C 147.707031 77.625 147.328125 77.914062 146.945312 78.203125 C 147.328125 77.914062 147.707031 77.625 148.078125 77.335938 Z M 146.925781 78.210938 C 146.546875 78.5 146.164062 78.78125 145.773438 79.070312 C 146.164062 78.789062 146.546875 78.5 146.925781 78.210938 Z M 145.742188 79.089844 C 145.363281 79.367188 144.972656 79.648438 144.582031 79.925781 C 144.972656 79.648438 145.363281 79.367188 145.742188 79.089844 Z M 144.5625 79.945312 C 144.171875 80.226562 143.773438 80.503906 143.382812 80.785156 C 143.78125 80.503906 144.171875 80.226562 144.5625 79.945312 Z M 143.320312 80.816406 C 142.519531 81.371094 141.699219 81.921875 140.867188 82.460938 C 141.699219 81.921875 142.519531 81.363281 143.320312 80.816406 Z M 140.867188 82.460938 L 140.828125 82.488281 C 140.40625 82.757812 139.996094 83.027344 139.566406 83.296875 C 139.144531 83.566406 138.726562 83.824219 138.292969 84.09375 C 138.726562 83.835938 139.144531 83.566406 139.566406 83.296875 Z M 138.234375 84.136719 C 137.804688 84.394531 137.382812 84.664062 136.941406 84.914062 C 137.371094 84.652344 137.804688 84.394531 138.234375 84.136719 Z M 136.933594 84.921875 C 136.5 85.183594 136.0625 85.441406 135.621094 85.699219 C 136.0625 85.441406 136.5 85.183594 136.933594 84.921875 Z M 135.582031 85.722656 C 135.140625 85.980469 134.699219 86.230469 134.25 86.488281 C 134.699219 86.238281 135.140625 85.980469 135.582031 85.722656 Z M 134.21875 86.5 C 133.769531 86.746094 133.316406 86.996094 132.867188 87.246094 C 133.316406 86.996094 133.769531 86.746094 134.21875 86.5 Z M 132.847656 87.265625 C 132.386719 87.515625 131.9375 87.765625 131.464844 88.015625 C 131.925781 87.765625 132.386719 87.527344 132.847656 87.265625 Z M 131.445312 88.023438 C 130.996094 88.261719 130.535156 88.503906 130.074219 88.742188 C 130.535156 88.503906 130.996094 88.261719 131.445312 88.023438 Z M 130.023438 88.773438 C 129.5625 89.011719 129.101562 89.242188 128.640625 89.46875 C 129.101562 89.242188 129.574219 89 130.023438 88.773438 Z M 128.570312 89.511719 C 128.101562 89.75 127.628906 89.980469 127.148438 90.207031 C 126.679688 90.4375 126.207031 90.65625 125.738281 90.875 C 126.207031 90.65625 126.679688 90.425781 127.148438 90.207031 C 127.628906 89.980469 128.101562 89.75 128.570312 89.511719 Z M 125.605469 90.9375 C 125.167969 91.144531 124.726562 91.34375 124.285156 91.542969 C 124.726562 91.34375 125.167969 91.144531 125.605469 90.9375 Z M 124.15625 91.605469 C 123.695312 91.8125 123.234375 92.011719 122.773438 92.210938 C 123.234375 92.011719 123.695312 91.804688 124.15625 91.605469 Z M 122.734375 92.230469 C 122.261719 92.441406 121.792969 92.640625 121.3125 92.839844 C 121.78125 92.640625 122.253906 92.441406 122.734375 92.230469 Z M 121.230469 92.878906 C 120.78125 93.070312 120.339844 93.25 119.890625 93.4375 C 120.339844 93.257812 120.78125 93.070312 121.230469 92.878906 Z M 119.757812 93.488281 C 119.308594 93.667969 118.867188 93.847656 118.417969 94.027344 C 118.867188 93.847656 119.308594 93.667969 119.757812 93.488281 Z M 118.335938 94.058594 C 117.878906 94.238281 117.40625 94.417969 116.945312 94.59375 C 117.40625 94.417969 117.878906 94.238281 118.335938 94.058594 Z M 116.84375 94.625 C 116.40625 94.796875 115.964844 94.953125 115.523438 95.113281 C 115.964844 94.953125 116.40625 94.796875 116.84375 94.625 Z M 115.382812 95.164062 C 114.941406 95.324219 114.511719 95.472656 114.070312 95.632812 C 114.503906 95.484375 114.941406 95.324219 115.382812 95.164062 Z M 113.960938 95.671875 C 113.5 95.832031 113.039062 95.992188 112.578125 96.140625 C 113.039062 95.992188 113.5 95.832031 113.960938 95.671875 Z M 112.519531 96.160156 C 112.078125 96.3125 111.628906 96.449219 111.1875 96.601562 C 111.628906 96.460938 112.078125 96.3125 112.519531 96.160156 Z M 111.039062 96.640625 C 110.605469 96.78125 110.175781 96.910156 109.746094 97.039062 C 110.175781 96.910156 110.605469 96.769531 111.039062 96.640625 Z M 109.65625 97.070312 C 109.195312 97.207031 108.746094 97.347656 108.285156 97.476562 C 108.746094 97.347656 109.195312 97.207031 109.65625 97.070312 Z M 108.246094 97.488281 C 107.804688 97.617188 107.363281 97.738281 106.914062 97.867188 C 107.351562 97.746094 107.792969 97.617188 108.246094 97.488281 Z M 106.753906 97.90625 C 106.332031 98.015625 105.921875 98.136719 105.5 98.234375 C 105.910156 98.125 106.332031 98.015625 106.753906 97.90625 Z M 105.371094 98.273438 C 104.929688 98.386719 104.5 98.496094 104.070312 98.605469 C 104.5 98.496094 104.941406 98.386719 105.371094 98.273438 Z M 104.007812 98.625 C 103.566406 98.734375 103.128906 98.832031 102.675781 98.945312 C 103.117188 98.84375 103.558594 98.734375 104.007812 98.625 Z M 102.558594 98.972656 C 102.136719 99.074219 101.714844 99.164062 101.296875 99.253906 C 101.714844 99.164062 102.136719 99.074219 102.558594 98.972656 Z M 101.183594 99.28125 C 100.753906 99.371094 100.332031 99.460938 99.902344 99.550781 C 100.324219 99.460938 100.753906 99.382812 101.183594 99.28125 Z M 99.832031 99.5625 C 99.390625 99.652344 98.960938 99.730469 98.53125 99.8125 C 98.960938 99.730469 99.402344 99.652344 99.832031 99.5625 Z M 98.421875 99.832031 C 98.011719 99.910156 97.609375 99.980469 97.210938 100.050781 C 97.609375 99.980469 98.019531 99.910156 98.421875 99.832031 Z M 97.058594 100.070312 C 96.648438 100.140625 96.226562 100.210938 95.816406 100.269531 C 96.226562 100.210938 96.640625 100.140625 97.058594 100.070312 Z M 95.757812 100.28125 C 95.328125 100.347656 94.90625 100.410156 94.476562 100.46875 C 94.894531 100.410156 95.328125 100.347656 95.757812 100.28125 Z M 94.386719 100.480469 C 93.984375 100.539062 93.585938 100.589844 93.195312 100.636719 C 93.59375 100.589844 93.984375 100.539062 94.386719 100.480469 Z M 93.054688 100.648438 C 92.652344 100.699219 92.261719 100.75 91.863281 100.789062 C 92.253906 100.75 92.652344 100.699219 93.054688 100.648438 Z M 91.78125 100.796875 C 91.363281 100.847656 90.953125 100.886719 90.53125 100.917969 C 90.941406 100.878906 91.363281 100.839844 91.78125 100.796875 Z M 90.480469 100.929688 C 90.078125 100.96875 89.679688 100.996094 89.277344 101.027344 C 89.679688 100.996094 90.078125 100.96875 90.480469 100.929688 Z M 89.179688 101.039062 C 88.898438 101.058594 88.617188 101.078125 88.347656 101.097656 C 91.410156 104.226562 95.027344 106.832031 99.011719 108.726562 C 103.648438 110.929688 108.796875 112.164062 114.152344 112.164062 C 120.371094 112.164062 126.289062 110.5 131.476562 107.609375 C 142.609375 101.386719 150.332031 89.46875 150.332031 76.136719 L 150.332031 75.550781 C 167.074219 61.789062 175.433594 45.714844 169.9375 34.425781 C 165.941406 26.21875 155.398438 22.171875 141.769531 22.339844 C 149.167969 23.785156 154.777344 27.214844 157.390625 32.570312 C 164.117188 46.371094 148.425781 67.78125 122.371094 80.367188 C 96.308594 92.960938 69.722656 91.972656 62.992188 78.171875 C 60.378906 72.816406 61.152344 66.316406 64.585938 59.625 C 56.015625 70.175781 52.679688 80.925781 56.6875 89.132812 C 61.101562 98.195312 73.488281 102.183594 89.1875 101.027344 Z M 89.179688 101.039062 " fill-opacity="1" fill-rule="evenodd"/></g><path fill="#1089b8" d="M 88.335938 101.097656 C 114.8125 99.921875 135.410156 92.78125 150.140625 79.6875 C 150.261719 78.519531 150.320312 77.335938 150.320312 76.136719 L 150.320312 75.550781 C 143.773438 80.933594 135.929688 85.960938 127.140625 90.207031 C 113.601562 96.75 100.011719 100.371094 88.335938 101.097656 Z M 88.335938 101.097656 " fill-opacity="1" fill-rule="evenodd"/><g fill="#545454" fill-opacity="1"><g transform="translate(12.771468, 156.63131)"><g><path d="M 14.15625 0.359375 C 11.851562 0.359375 9.820312 -0.0859375 8.0625 -0.984375 C 6.3125 -1.890625 4.945312 -3.15625 3.96875 -4.78125 C 3 -6.414062 2.515625 -8.296875 2.515625 -10.421875 L 2.515625 -30.703125 C 2.515625 -31.210938 2.769531 -31.46875 3.28125 -31.46875 L 8.09375 -31.46875 C 8.601562 -31.46875 8.859375 -31.210938 8.859375 -30.703125 L 8.859375 -10.390625 C 8.859375 -8.796875 9.34375 -7.507812 10.3125 -6.53125 C 11.289062 -5.5625 12.570312 -5.078125 14.15625 -5.078125 C 15.75 -5.078125 17.03125 -5.5625 18 -6.53125 C 18.976562 -7.507812 19.46875 -8.796875 19.46875 -10.390625 L 19.46875 -30.703125 C 19.46875 -31.210938 19.722656 -31.46875 20.234375 -31.46875 L 25.03125 -31.46875 C 25.539062 -31.46875 25.796875 -31.210938 25.796875 -30.703125 L 25.796875 -10.421875 C 25.796875 -8.296875 25.304688 -6.414062 24.328125 -4.78125 C 23.359375 -3.15625 22 -1.890625 20.25 -0.984375 C 18.5 -0.0859375 16.46875 0.359375 14.15625 0.359375 Z M 14.15625 0.359375 "/></g></g></g><g fill="#545454" fill-opacity="1"><g transform="translate(41.046369, 156.63131)"><g><path d="M 20.1875 0 C 19.789062 0 19.488281 -0.191406 19.28125 -0.578125 L 13.75 -12.8125 C 13.695312 -12.957031 13.59375 -13.03125 13.4375 -13.03125 L 9.34375 -13.03125 C 9.164062 -13.03125 9.078125 -12.941406 9.078125 -12.765625 L 9.078125 -0.765625 C 9.078125 -0.253906 8.820312 0 8.3125 0 L 3.5 0 C 2.988281 0 2.734375 -0.253906 2.734375 -0.765625 L 2.734375 -30.75 C 2.734375 -31.257812 2.988281 -31.515625 3.5 -31.515625 L 16.140625 -31.515625 C 18.054688 -31.515625 19.738281 -31.113281 21.1875 -30.3125 C 22.644531 -29.519531 23.769531 -28.40625 24.5625 -26.96875 C 25.363281 -25.53125 25.765625 -23.882812 25.765625 -22.03125 C 25.765625 -19.988281 25.253906 -18.234375 24.234375 -16.765625 C 23.210938 -15.296875 21.800781 -14.265625 20 -13.671875 C 19.914062 -13.640625 19.859375 -13.582031 19.828125 -13.5 C 19.796875 -13.425781 19.8125 -13.363281 19.875 -13.3125 L 25.796875 -0.90625 C 25.890625 -0.78125 25.9375 -0.644531 25.9375 -0.5 C 25.9375 -0.34375 25.875 -0.21875 25.75 -0.125 C 25.632812 -0.0390625 25.472656 0 25.265625 0 Z M 9.34375 -26.03125 C 9.164062 -26.03125 9.078125 -25.941406 9.078125 -25.765625 L 9.078125 -18.203125 C 9.078125 -18.023438 9.164062 -17.9375 9.34375 -17.9375 L 15.1875 -17.9375 C 16.445312 -17.9375 17.472656 -18.300781 18.265625 -19.03125 C 19.066406 -19.769531 19.46875 -20.738281 19.46875 -21.9375 C 19.46875 -23.132812 19.066406 -24.113281 18.265625 -24.875 C 17.472656 -25.644531 16.445312 -26.03125 15.1875 -26.03125 Z M 9.34375 -26.03125 "/></g></g></g><g fill="#545454" fill-opacity="1"><g transform="translate(68.646995, 156.63131)"><g><path d="M 3.5 0 C 2.988281 0 2.734375 -0.253906 2.734375 -0.765625 L 2.734375 -30.703125 C 2.734375 -31.210938 2.988281 -31.46875 3.5 -31.46875 L 8.3125 -31.46875 C 8.820312 -31.46875 9.078125 -31.210938 9.078125 -30.703125 L 9.078125 -18.4375 C 9.078125 -18.3125 9.113281 -18.234375 9.1875 -18.203125 C 9.269531 -18.171875 9.335938 -18.203125 9.390625 -18.296875 L 19.640625 -31.015625 C 19.847656 -31.316406 20.164062 -31.46875 20.59375 -31.46875 L 26.03125 -31.46875 C 26.238281 -31.46875 26.398438 -31.429688 26.515625 -31.359375 C 26.640625 -31.285156 26.703125 -31.171875 26.703125 -31.015625 C 26.703125 -30.898438 26.628906 -30.734375 26.484375 -30.515625 L 16.671875 -18.03125 C 16.585938 -17.9375 16.585938 -17.816406 16.671875 -17.671875 L 27.0625 -0.90625 C 27.15625 -0.78125 27.203125 -0.644531 27.203125 -0.5 C 27.203125 -0.164062 26.988281 0 26.5625 0 L 21.125 0 C 20.738281 0 20.441406 -0.164062 20.234375 -0.5 L 12.359375 -13.265625 C 12.328125 -13.347656 12.265625 -13.390625 12.171875 -13.390625 C 12.085938 -13.390625 12.015625 -13.347656 11.953125 -13.265625 L 9.21875 -9.75 C 9.125 -9.632812 9.078125 -9.53125 9.078125 -9.4375 L 9.078125 -0.765625 C 9.078125 -0.253906 8.820312 0 8.3125 0 Z M 3.5 0 "/></g></g></g><g fill="#545454" fill-opacity="1"><g transform="translate(96.787043, 156.63131)"><g><path d="M 22.96875 0 C 22.550781 0 22.265625 -0.207031 22.109375 -0.625 L 20.859375 -4.8125 C 20.828125 -4.957031 20.738281 -5.03125 20.59375 -5.03125 L 9.578125 -5.03125 C 9.421875 -5.03125 9.332031 -4.957031 9.3125 -4.8125 L 8.046875 -0.625 C 7.898438 -0.207031 7.613281 0 7.1875 0 L 1.984375 0 C 1.710938 0 1.515625 -0.0820312 1.390625 -0.25 C 1.273438 -0.414062 1.257812 -0.617188 1.34375 -0.859375 L 10.921875 -30.84375 C 11.066406 -31.257812 11.351562 -31.46875 11.78125 -31.46875 L 18.390625 -31.46875 C 18.804688 -31.46875 19.085938 -31.257812 19.234375 -30.84375 L 28.8125 -0.859375 C 28.84375 -0.796875 28.859375 -0.703125 28.859375 -0.578125 C 28.859375 -0.398438 28.796875 -0.257812 28.671875 -0.15625 C 28.554688 -0.0507812 28.394531 0 28.1875 0 Z M 10.875 -10.25 C 10.84375 -10.039062 10.921875 -9.9375 11.109375 -9.9375 L 19.0625 -9.9375 C 19.238281 -9.9375 19.3125 -10.039062 19.28125 -10.25 L 15.234375 -23.953125 C 15.203125 -24.078125 15.148438 -24.140625 15.078125 -24.140625 C 15.003906 -24.140625 14.9375 -24.078125 14.875 -23.953125 Z M 10.875 -10.25 "/></g></g></g><g fill="#545454" fill-opacity="1"><g transform="translate(126.949937, 156.63131)"><g><path d="M 3.546875 0 C 3.035156 0 2.78125 -0.253906 2.78125 -0.765625 L 2.78125 -30.703125 C 2.78125 -31.210938 3.035156 -31.46875 3.546875 -31.46875 L 8.359375 -31.46875 C 8.753906 -31.46875 9.054688 -31.300781 9.265625 -30.96875 L 15.78125 -20.453125 C 15.84375 -20.359375 15.910156 -20.3125 15.984375 -20.3125 C 16.054688 -20.3125 16.109375 -20.359375 16.140625 -20.453125 L 22.75 -30.96875 C 22.957031 -31.300781 23.253906 -31.46875 23.640625 -31.46875 L 28.453125 -31.46875 C 28.960938 -31.46875 29.21875 -31.210938 29.21875 -30.703125 L 29.21875 -0.765625 C 29.21875 -0.253906 28.960938 0 28.453125 0 L 23.640625 0 C 23.128906 0 22.875 -0.253906 22.875 -0.765625 L 22.875 -20.234375 C 22.875 -20.347656 22.835938 -20.421875 22.765625 -20.453125 C 22.691406 -20.484375 22.625 -20.4375 22.5625 -20.3125 L 18.03125 -12.90625 C 17.820312 -12.570312 17.519531 -12.40625 17.125 -12.40625 L 14.828125 -12.40625 C 14.441406 -12.40625 14.144531 -12.570312 13.9375 -12.90625 L 9.4375 -20.3125 C 9.375 -20.4375 9.304688 -20.484375 9.234375 -20.453125 C 9.160156 -20.421875 9.125 -20.347656 9.125 -20.234375 L 9.125 -0.765625 C 9.125 -0.253906 8.867188 0 8.359375 0 Z M 3.546875 0 "/></g></g></g><g fill="#545454" fill-opacity="1"><g transform="translate(158.910914, 156.63131)"><g><path d="M 13.390625 0.359375 C 11.054688 0.359375 9.003906 -0.03125 7.234375 -0.8125 C 5.460938 -1.59375 4.097656 -2.6875 3.140625 -4.09375 C 2.179688 -5.5 1.703125 -7.144531 1.703125 -9.03125 L 1.703125 -9.796875 C 1.703125 -10.304688 1.957031 -10.5625 2.46875 -10.5625 L 7.1875 -10.5625 C 7.695312 -10.5625 7.953125 -10.367188 7.953125 -9.984375 L 7.953125 -9.34375 C 7.953125 -8.144531 8.5 -7.132812 9.59375 -6.3125 C 10.6875 -5.488281 12.117188 -5.078125 13.890625 -5.078125 C 15.472656 -5.078125 16.644531 -5.414062 17.40625 -6.09375 C 18.175781 -6.769531 18.5625 -7.601562 18.5625 -8.59375 C 18.5625 -9.3125 18.320312 -9.914062 17.84375 -10.40625 C 17.363281 -10.894531 16.71875 -11.328125 15.90625 -11.703125 C 15.101562 -12.078125 13.800781 -12.597656 12 -13.265625 C 9.96875 -13.953125 8.257812 -14.65625 6.875 -15.375 C 5.5 -16.09375 4.332031 -17.070312 3.375 -18.3125 C 2.414062 -19.5625 1.9375 -21.097656 1.9375 -22.921875 C 1.9375 -24.722656 2.398438 -26.296875 3.328125 -27.640625 C 4.253906 -28.992188 5.546875 -30.03125 7.203125 -30.75 C 8.867188 -31.46875 10.769531 -31.828125 12.90625 -31.828125 C 15.175781 -31.828125 17.210938 -31.421875 19.015625 -30.609375 C 20.816406 -29.804688 22.21875 -28.675781 23.21875 -27.21875 C 24.21875 -25.757812 24.71875 -24.070312 24.71875 -22.15625 L 24.71875 -21.71875 C 24.71875 -21.207031 24.460938 -20.953125 23.953125 -20.953125 L 19.234375 -20.953125 C 18.722656 -20.953125 18.46875 -21.097656 18.46875 -21.390625 L 18.46875 -21.84375 C 18.46875 -23.101562 17.953125 -24.175781 16.921875 -25.0625 C 15.890625 -25.945312 14.472656 -26.390625 12.671875 -26.390625 C 11.234375 -26.390625 10.125 -26.085938 9.34375 -25.484375 C 8.570312 -24.890625 8.1875 -24.066406 8.1875 -23.015625 C 8.1875 -22.265625 8.410156 -21.632812 8.859375 -21.125 C 9.304688 -20.613281 9.984375 -20.148438 10.890625 -19.734375 C 11.804688 -19.316406 13.226562 -18.773438 15.15625 -18.109375 C 17.25 -17.335938 18.910156 -16.65625 20.140625 -16.0625 C 21.367188 -15.476562 22.46875 -14.585938 23.4375 -13.390625 C 24.414062 -12.191406 24.90625 -10.648438 24.90625 -8.765625 C 24.90625 -6.941406 24.429688 -5.335938 23.484375 -3.953125 C 22.546875 -2.578125 21.210938 -1.515625 19.484375 -0.765625 C 17.765625 -0.015625 15.734375 0.359375 13.390625 0.359375 Z M 13.390625 0.359375 "/></g></g></g><g fill="#545454" fill-opacity="1"><g transform="translate(185.522603, 156.63131)"><g><path d="M 13.9375 0.5 C 11.59375 0.5 9.53125 0.0195312 7.75 -0.9375 C 5.96875 -1.894531 4.582031 -3.234375 3.59375 -4.953125 C 2.601562 -6.679688 2.109375 -8.671875 2.109375 -10.921875 L 2.109375 -20.546875 C 2.109375 -22.765625 2.601562 -24.726562 3.59375 -26.4375 C 4.582031 -28.144531 5.96875 -29.46875 7.75 -30.40625 C 9.53125 -31.351562 11.59375 -31.828125 13.9375 -31.828125 C 16.300781 -31.828125 18.375 -31.351562 20.15625 -30.40625 C 21.945312 -29.46875 23.332031 -28.144531 24.3125 -26.4375 C 25.300781 -24.726562 25.796875 -22.765625 25.796875 -20.546875 L 25.796875 -10.921875 C 25.796875 -8.671875 25.300781 -6.675781 24.3125 -4.9375 C 23.332031 -3.207031 21.945312 -1.867188 20.15625 -0.921875 C 18.375 0.0234375 16.300781 0.5 13.9375 0.5 Z M 13.9375 -4.9375 C 15.582031 -4.9375 16.914062 -5.460938 17.9375 -6.515625 C 18.957031 -7.566406 19.46875 -8.960938 19.46875 -10.703125 L 19.46875 -20.59375 C 19.46875 -22.332031 18.960938 -23.734375 17.953125 -24.796875 C 16.953125 -25.859375 15.613281 -26.390625 13.9375 -26.390625 C 12.289062 -26.390625 10.960938 -25.859375 9.953125 -24.796875 C 8.953125 -23.734375 8.453125 -22.332031 8.453125 -20.59375 L 8.453125 -10.703125 C 8.453125 -8.960938 8.953125 -7.566406 9.953125 -6.515625 C 10.960938 -5.460938 12.289062 -4.9375 13.9375 -4.9375 Z M 13.9375 -4.9375 "/></g></g></g><g fill="#545454" fill-opacity="1"><g transform="translate(35.681258, 174.280545)"><g><path d="M 5.875 -4.609375 C 5.84375 -4.609375 5.828125 -4.597656 5.828125 -4.578125 C 5.828125 -4.554688 5.84375 -4.535156 5.875 -4.515625 C 6.71875 -4.109375 7.140625 -3.421875 7.140625 -2.453125 C 7.140625 -1.648438 6.867188 -1.039062 6.328125 -0.625 C 5.796875 -0.207031 5.101562 0 4.25 0 L 1.125 0 C 0.988281 0 0.921875 -0.0664062 0.921875 -0.203125 L 0.921875 -8.625 C 0.921875 -8.757812 0.988281 -8.828125 1.125 -8.828125 L 4.15625 -8.828125 C 5.0625 -8.828125 5.765625 -8.628906 6.265625 -8.234375 C 6.765625 -7.835938 7.015625 -7.238281 7.015625 -6.4375 C 7.015625 -5.570312 6.632812 -4.960938 5.875 -4.609375 Z M 2.453125 -7.5625 C 2.410156 -7.5625 2.390625 -7.535156 2.390625 -7.484375 L 2.390625 -5.1875 C 2.390625 -5.132812 2.410156 -5.109375 2.453125 -5.109375 L 4.15625 -5.109375 C 4.59375 -5.109375 4.941406 -5.210938 5.203125 -5.421875 C 5.460938 -5.640625 5.59375 -5.9375 5.59375 -6.3125 C 5.59375 -6.695312 5.460938 -7 5.203125 -7.21875 C 4.941406 -7.445312 4.59375 -7.5625 4.15625 -7.5625 Z M 4.25 -1.28125 C 4.6875 -1.28125 5.03125 -1.394531 5.28125 -1.625 C 5.539062 -1.863281 5.671875 -2.179688 5.671875 -2.578125 C 5.671875 -2.992188 5.539062 -3.316406 5.28125 -3.546875 C 5.019531 -3.773438 4.664062 -3.890625 4.21875 -3.890625 L 2.453125 -3.890625 C 2.410156 -3.890625 2.390625 -3.867188 2.390625 -3.828125 L 2.390625 -1.34375 C 2.390625 -1.300781 2.410156 -1.28125 2.453125 -1.28125 Z M 4.25 -1.28125 "/></g></g></g><g fill="#545454" fill-opacity="1"><g transform="translate(46.157045, 174.280545)"><g><path d="M 3.90625 0.125 C 3.28125 0.125 2.722656 0 2.234375 -0.25 C 1.742188 -0.507812 1.363281 -0.875 1.09375 -1.34375 C 0.832031 -1.820312 0.703125 -2.363281 0.703125 -2.96875 L 0.703125 -5.84375 C 0.703125 -6.457031 0.835938 -6.992188 1.109375 -7.453125 C 1.378906 -7.921875 1.753906 -8.28125 2.234375 -8.53125 C 2.722656 -8.789062 3.28125 -8.921875 3.90625 -8.921875 C 4.550781 -8.921875 5.113281 -8.789062 5.59375 -8.53125 C 6.070312 -8.28125 6.445312 -7.921875 6.71875 -7.453125 C 6.988281 -6.992188 7.125 -6.457031 7.125 -5.84375 L 7.125 -2.96875 C 7.125 -2.363281 6.988281 -1.820312 6.71875 -1.34375 C 6.445312 -0.875 6.070312 -0.507812 5.59375 -0.25 C 5.113281 0 4.550781 0.125 3.90625 0.125 Z M 3.90625 -1.140625 C 4.4375 -1.140625 4.859375 -1.300781 5.171875 -1.625 C 5.492188 -1.957031 5.65625 -2.390625 5.65625 -2.921875 L 5.65625 -5.859375 C 5.65625 -6.410156 5.492188 -6.847656 5.171875 -7.171875 C 4.859375 -7.503906 4.4375 -7.671875 3.90625 -7.671875 C 3.382812 -7.671875 2.960938 -7.503906 2.640625 -7.171875 C 2.328125 -6.847656 2.171875 -6.410156 2.171875 -5.859375 L 2.171875 -2.921875 C 2.171875 -2.390625 2.328125 -1.957031 2.640625 -1.625 C 2.960938 -1.300781 3.382812 -1.140625 3.90625 -1.140625 Z M 3.90625 -1.140625 "/></g></g></g><g fill="#545454" fill-opacity="1"><g transform="translate(56.620229, 174.280545)"><g><path d="M 6.671875 -8.828125 C 6.804688 -8.828125 6.875 -8.757812 6.875 -8.625 L 6.875 -7.75 C 6.875 -7.613281 6.804688 -7.546875 6.671875 -7.546875 L 4.40625 -7.546875 C 4.363281 -7.546875 4.34375 -7.523438 4.34375 -7.484375 L 4.34375 -0.203125 C 4.34375 -0.0664062 4.273438 0 4.140625 0 L 3.078125 0 C 2.941406 0 2.875 -0.0664062 2.875 -0.203125 L 2.875 -7.484375 C 2.875 -7.523438 2.847656 -7.546875 2.796875 -7.546875 L 0.625 -7.546875 C 0.488281 -7.546875 0.421875 -7.613281 0.421875 -7.75 L 0.421875 -8.625 C 0.421875 -8.757812 0.488281 -8.828125 0.625 -8.828125 Z M 6.671875 -8.828125 "/></g></g></g><g fill="#545454" fill-opacity="1"><g transform="translate(66.554094, 174.280545)"><g><path d="M 6.671875 -8.828125 C 6.804688 -8.828125 6.875 -8.757812 6.875 -8.625 L 6.875 -7.75 C 6.875 -7.613281 6.804688 -7.546875 6.671875 -7.546875 L 4.40625 -7.546875 C 4.363281 -7.546875 4.34375 -7.523438 4.34375 -7.484375 L 4.34375 -0.203125 C 4.34375 -0.0664062 4.273438 0 4.140625 0 L 3.078125 0 C 2.941406 0 2.875 -0.0664062 2.875 -0.203125 L 2.875 -7.484375 C 2.875 -7.523438 2.847656 -7.546875 2.796875 -7.546875 L 0.625 -7.546875 C 0.488281 -7.546875 0.421875 -7.613281 0.421875 -7.75 L 0.421875 -8.625 C 0.421875 -8.757812 0.488281 -8.828125 0.625 -8.828125 Z M 6.671875 -8.828125 "/></g></g></g><g fill="#545454" fill-opacity="1"><g transform="translate(76.487962, 174.280545)"><g><path d="M 1.125 0 C 0.988281 0 0.921875 -0.0664062 0.921875 -0.203125 L 0.921875 -8.625 C 0.921875 -8.757812 0.988281 -8.828125 1.125 -8.828125 L 2.1875 -8.828125 C 2.320312 -8.828125 2.390625 -8.757812 2.390625 -8.625 L 2.390625 -1.34375 C 2.390625 -1.289062 2.410156 -1.265625 2.453125 -1.265625 L 6.625 -1.265625 C 6.757812 -1.265625 6.828125 -1.195312 6.828125 -1.0625 L 6.828125 -0.203125 C 6.828125 -0.0664062 6.757812 0 6.625 0 Z M 1.125 0 "/></g></g></g><g fill="#545454" fill-opacity="1"><g transform="translate(86.321009, 174.280545)"><g><path d="M 1.125 0 C 0.988281 0 0.921875 -0.0664062 0.921875 -0.203125 L 0.921875 -8.625 C 0.921875 -8.757812 0.988281 -8.828125 1.125 -8.828125 L 2.1875 -8.828125 C 2.320312 -8.828125 2.390625 -8.757812 2.390625 -8.625 L 2.390625 -0.203125 C 2.390625 -0.0664062 2.320312 0 2.1875 0 Z M 1.125 0 "/></g></g></g><g fill="#545454" fill-opacity="1"><g transform="translate(92.259758, 174.280545)"><g><path d="M 1.125 0 C 0.988281 0 0.921875 -0.0664062 0.921875 -0.203125 L 0.921875 -8.625 C 0.921875 -8.757812 0.988281 -8.828125 1.125 -8.828125 L 2.125 -8.828125 C 2.25 -8.828125 2.335938 -8.78125 2.390625 -8.6875 L 5.90625 -2.90625 C 5.925781 -2.875 5.945312 -2.863281 5.96875 -2.875 C 5.988281 -2.882812 6 -2.90625 6 -2.9375 L 6 -8.625 C 6 -8.757812 6.066406 -8.828125 6.203125 -8.828125 L 7.265625 -8.828125 C 7.398438 -8.828125 7.46875 -8.757812 7.46875 -8.625 L 7.46875 -0.203125 C 7.46875 -0.0664062 7.398438 0 7.265625 0 L 6.234375 0 C 6.109375 0 6.023438 -0.046875 5.984375 -0.140625 L 2.453125 -5.953125 C 2.429688 -5.984375 2.410156 -5.992188 2.390625 -5.984375 C 2.367188 -5.984375 2.359375 -5.960938 2.359375 -5.921875 L 2.375 -0.203125 C 2.375 -0.0664062 2.304688 0 2.171875 0 Z M 1.125 0 "/></g></g></g><g fill="#545454" fill-opacity="1"><g transform="translate(103.264863, 174.280545)"><g><path d="M 3.875 0.09375 C 3.238281 0.09375 2.679688 -0.0234375 2.203125 -0.265625 C 1.722656 -0.515625 1.351562 -0.863281 1.09375 -1.3125 C 0.832031 -1.769531 0.703125 -2.296875 0.703125 -2.890625 L 0.703125 -5.9375 C 0.703125 -6.53125 0.832031 -7.050781 1.09375 -7.5 C 1.351562 -7.957031 1.722656 -8.304688 2.203125 -8.546875 C 2.679688 -8.796875 3.238281 -8.921875 3.875 -8.921875 C 4.488281 -8.921875 5.035156 -8.800781 5.515625 -8.5625 C 5.992188 -8.320312 6.363281 -7.988281 6.625 -7.5625 C 6.882812 -7.144531 7.015625 -6.671875 7.015625 -6.140625 L 7.015625 -6.09375 C 7.015625 -5.957031 6.945312 -5.890625 6.8125 -5.890625 L 5.765625 -5.890625 C 5.703125 -5.890625 5.648438 -5.898438 5.609375 -5.921875 C 5.578125 -5.941406 5.5625 -5.96875 5.5625 -6 L 5.5625 -6.109375 C 5.5625 -6.554688 5.40625 -6.925781 5.09375 -7.21875 C 4.789062 -7.519531 4.382812 -7.671875 3.875 -7.671875 C 3.363281 -7.671875 2.953125 -7.515625 2.640625 -7.203125 C 2.328125 -6.898438 2.171875 -6.492188 2.171875 -5.984375 L 2.171875 -2.84375 C 2.171875 -2.332031 2.332031 -1.921875 2.65625 -1.609375 C 2.988281 -1.304688 3.414062 -1.15625 3.9375 -1.15625 C 4.4375 -1.15625 4.832031 -1.285156 5.125 -1.546875 C 5.414062 -1.816406 5.5625 -2.179688 5.5625 -2.640625 L 5.5625 -3.421875 C 5.5625 -3.472656 5.535156 -3.5 5.484375 -3.5 L 4 -3.5 C 3.863281 -3.5 3.796875 -3.5625 3.796875 -3.6875 L 3.796875 -4.53125 C 3.796875 -4.664062 3.863281 -4.734375 4 -4.734375 L 6.8125 -4.734375 C 6.945312 -4.734375 7.015625 -4.664062 7.015625 -4.53125 L 7.015625 -2.96875 C 7.015625 -2 6.726562 -1.242188 6.15625 -0.703125 C 5.59375 -0.171875 4.832031 0.09375 3.875 0.09375 Z M 3.875 0.09375 "/></g></g></g><g fill="#545454" fill-opacity="1"><g transform="translate(113.539009, 174.280545)"><g/></g></g><g fill="#545454" fill-opacity="1"><g transform="translate(118.696382, 174.280545)"><g><path d="M 3.875 0.09375 C 3.238281 0.09375 2.679688 -0.0234375 2.203125 -0.265625 C 1.722656 -0.515625 1.351562 -0.863281 1.09375 -1.3125 C 0.832031 -1.757812 0.703125 -2.273438 0.703125 -2.859375 L 0.703125 -5.984375 C 0.703125 -6.566406 0.832031 -7.082031 1.09375 -7.53125 C 1.351562 -7.976562 1.722656 -8.320312 2.203125 -8.5625 C 2.679688 -8.800781 3.238281 -8.921875 3.875 -8.921875 C 4.488281 -8.921875 5.035156 -8.800781 5.515625 -8.5625 C 5.992188 -8.332031 6.363281 -8.003906 6.625 -7.578125 C 6.894531 -7.148438 7.03125 -6.65625 7.03125 -6.09375 C 7.03125 -6.007812 6.960938 -5.957031 6.828125 -5.9375 L 5.765625 -5.875 L 5.71875 -5.875 C 5.613281 -5.875 5.5625 -5.894531 5.5625 -5.9375 L 5.5625 -6.015625 C 5.5625 -6.515625 5.40625 -6.914062 5.09375 -7.21875 C 4.789062 -7.519531 4.382812 -7.671875 3.875 -7.671875 C 3.363281 -7.671875 2.953125 -7.519531 2.640625 -7.21875 C 2.328125 -6.914062 2.171875 -6.515625 2.171875 -6.015625 L 2.171875 -2.796875 C 2.171875 -2.304688 2.328125 -1.910156 2.640625 -1.609375 C 2.953125 -1.304688 3.363281 -1.15625 3.875 -1.15625 C 4.382812 -1.15625 4.789062 -1.304688 5.09375 -1.609375 C 5.40625 -1.910156 5.5625 -2.304688 5.5625 -2.796875 C 5.5625 -2.835938 5.578125 -2.875 5.609375 -2.90625 C 5.648438 -2.9375 5.703125 -2.945312 5.765625 -2.9375 L 6.828125 -2.890625 C 6.960938 -2.867188 7.03125 -2.847656 7.03125 -2.828125 L 7.03125 -2.765625 C 7.03125 -2.191406 6.894531 -1.6875 6.625 -1.25 C 6.363281 -0.820312 5.992188 -0.488281 5.515625 -0.25 C 5.035156 -0.0195312 4.488281 0.09375 3.875 0.09375 Z M 3.875 0.09375 "/></g></g></g><g fill="#545454" fill-opacity="1"><g transform="translate(128.995736, 174.280545)"><g><path d="M 3.90625 0.125 C 3.28125 0.125 2.722656 0 2.234375 -0.25 C 1.742188 -0.507812 1.363281 -0.875 1.09375 -1.34375 C 0.832031 -1.820312 0.703125 -2.363281 0.703125 -2.96875 L 0.703125 -5.84375 C 0.703125 -6.457031 0.835938 -6.992188 1.109375 -7.453125 C 1.378906 -7.921875 1.753906 -8.28125 2.234375 -8.53125 C 2.722656 -8.789062 3.28125 -8.921875 3.90625 -8.921875 C 4.550781 -8.921875 5.113281 -8.789062 5.59375 -8.53125 C 6.070312 -8.28125 6.445312 -7.921875 6.71875 -7.453125 C 6.988281 -6.992188 7.125 -6.457031 7.125 -5.84375 L 7.125 -2.96875 C 7.125 -2.363281 6.988281 -1.820312 6.71875 -1.34375 C 6.445312 -0.875 6.070312 -0.507812 5.59375 -0.25 C 5.113281 0 4.550781 0.125 3.90625 0.125 Z M 3.90625 -1.140625 C 4.4375 -1.140625 4.859375 -1.300781 5.171875 -1.625 C 5.492188 -1.957031 5.65625 -2.390625 5.65625 -2.921875 L 5.65625 -5.859375 C 5.65625 -6.410156 5.492188 -6.847656 5.171875 -7.171875 C 4.859375 -7.503906 4.4375 -7.671875 3.90625 -7.671875 C 3.382812 -7.671875 2.960938 -7.503906 2.640625 -7.171875 C 2.328125 -6.847656 2.171875 -6.410156 2.171875 -5.859375 L 2.171875 -2.921875 C 2.171875 -2.390625 2.328125 -1.957031 2.640625 -1.625 C 2.960938 -1.300781 3.382812 -1.140625 3.90625 -1.140625 Z M 3.90625 -1.140625 "/></g></g></g><g fill="#545454" fill-opacity="1"><g transform="translate(139.45892, 174.280545)"><g><path d="M 1.125 0 C 0.988281 0 0.921875 -0.0664062 0.921875 -0.203125 L 0.921875 -8.625 C 0.921875 -8.757812 0.988281 -8.828125 1.125 -8.828125 L 2.1875 -8.828125 C 2.3125 -8.828125 2.398438 -8.78125 2.453125 -8.6875 L 4.40625 -5.515625 C 4.425781 -5.484375 4.445312 -5.46875 4.46875 -5.46875 C 4.488281 -5.46875 4.503906 -5.484375 4.515625 -5.515625 L 6.5 -8.6875 C 6.550781 -8.78125 6.640625 -8.828125 6.765625 -8.828125 L 7.8125 -8.828125 C 7.945312 -8.828125 8.015625 -8.757812 8.015625 -8.625 L 8.015625 -0.203125 C 8.015625 -0.0664062 7.945312 0 7.8125 0 L 6.765625 0 C 6.628906 0 6.5625 -0.0664062 6.5625 -0.203125 L 6.5625 -6.171875 C 6.5625 -6.203125 6.550781 -6.21875 6.53125 -6.21875 C 6.507812 -6.226562 6.488281 -6.21875 6.46875 -6.1875 L 4.96875 -3.734375 C 4.914062 -3.640625 4.832031 -3.59375 4.71875 -3.59375 L 4.21875 -3.59375 C 4.101562 -3.59375 4.019531 -3.640625 3.96875 -3.734375 L 2.46875 -6.1875 C 2.457031 -6.21875 2.441406 -6.226562 2.421875 -6.21875 C 2.398438 -6.21875 2.390625 -6.203125 2.390625 -6.171875 L 2.390625 -0.203125 C 2.390625 -0.0664062 2.320312 0 2.1875 0 Z M 1.125 0 "/></g></g></g><g fill="#545454" fill-opacity="1"><g transform="translate(151.031148, 174.280545)"><g><path d="M 4.46875 -8.84375 C 5 -8.84375 5.460938 -8.734375 5.859375 -8.515625 C 6.265625 -8.296875 6.578125 -7.984375 6.796875 -7.578125 C 7.023438 -7.179688 7.140625 -6.722656 7.140625 -6.203125 C 7.140625 -5.691406 7.023438 -5.238281 6.796875 -4.84375 C 6.566406 -4.445312 6.242188 -4.140625 5.828125 -3.921875 C 5.410156 -3.710938 4.929688 -3.609375 4.390625 -3.609375 L 2.390625 -3.609375 C 2.335938 -3.609375 2.3125 -3.582031 2.3125 -3.53125 L 2.3125 -0.203125 C 2.3125 -0.0664062 2.242188 0 2.109375 0 L 1.046875 0 C 0.910156 0 0.84375 -0.0664062 0.84375 -0.203125 L 0.84375 -8.640625 C 0.84375 -8.773438 0.910156 -8.84375 1.046875 -8.84375 Z M 4.25 -4.796875 C 4.675781 -4.796875 5.019531 -4.921875 5.28125 -5.171875 C 5.539062 -5.421875 5.671875 -5.753906 5.671875 -6.171875 C 5.671875 -6.585938 5.539062 -6.925781 5.28125 -7.1875 C 5.019531 -7.445312 4.675781 -7.578125 4.25 -7.578125 L 2.390625 -7.578125 C 2.335938 -7.578125 2.3125 -7.550781 2.3125 -7.5 L 2.3125 -4.875 C 2.3125 -4.820312 2.335938 -4.796875 2.390625 -4.796875 Z M 4.25 -4.796875 "/></g></g></g><g fill="#545454" fill-opacity="1"><g transform="translate(161.166654, 174.280545)"><g><path d="M 6.4375 0 C 6.320312 0 6.25 -0.0507812 6.21875 -0.15625 L 5.828125 -1.46875 C 5.816406 -1.507812 5.785156 -1.53125 5.734375 -1.53125 L 2.4375 -1.53125 C 2.382812 -1.53125 2.351562 -1.507812 2.34375 -1.46875 L 1.953125 -0.15625 C 1.921875 -0.0507812 1.847656 0 1.734375 0 L 0.578125 0 C 0.515625 0 0.46875 -0.0195312 0.4375 -0.0625 C 0.40625 -0.101562 0.398438 -0.160156 0.421875 -0.234375 L 3.109375 -8.65625 C 3.148438 -8.769531 3.226562 -8.828125 3.34375 -8.828125 L 4.8125 -8.828125 C 4.9375 -8.828125 5.015625 -8.769531 5.046875 -8.65625 L 7.75 -0.234375 C 7.757812 -0.210938 7.765625 -0.1875 7.765625 -0.15625 C 7.765625 -0.0507812 7.707031 0 7.59375 0 Z M 2.734375 -2.765625 C 2.722656 -2.703125 2.742188 -2.671875 2.796875 -2.671875 L 5.375 -2.671875 C 5.425781 -2.671875 5.445312 -2.703125 5.4375 -2.765625 L 4.140625 -7.046875 C 4.128906 -7.078125 4.113281 -7.09375 4.09375 -7.09375 C 4.070312 -7.09375 4.050781 -7.078125 4.03125 -7.046875 Z M 2.734375 -2.765625 "/></g></g></g><g fill="#545454" fill-opacity="1"><g transform="translate(171.970109, 174.280545)"><g><path d="M 1.125 0 C 0.988281 0 0.921875 -0.0664062 0.921875 -0.203125 L 0.921875 -8.625 C 0.921875 -8.757812 0.988281 -8.828125 1.125 -8.828125 L 2.125 -8.828125 C 2.25 -8.828125 2.335938 -8.78125 2.390625 -8.6875 L 5.90625 -2.90625 C 5.925781 -2.875 5.945312 -2.863281 5.96875 -2.875 C 5.988281 -2.882812 6 -2.90625 6 -2.9375 L 6 -8.625 C 6 -8.757812 6.066406 -8.828125 6.203125 -8.828125 L 7.265625 -8.828125 C 7.398438 -8.828125 7.46875 -8.757812 7.46875 -8.625 L 7.46875 -0.203125 C 7.46875 -0.0664062 7.398438 0 7.265625 0 L 6.234375 0 C 6.109375 0 6.023438 -0.046875 5.984375 -0.140625 L 2.453125 -5.953125 C 2.429688 -5.984375 2.410156 -5.992188 2.390625 -5.984375 C 2.367188 -5.984375 2.359375 -5.960938 2.359375 -5.921875 L 2.375 -0.203125 C 2.375 -0.0664062 2.304688 0 2.171875 0 Z M 1.125 0 "/></g></g></g><g fill="#545454" fill-opacity="1"><g transform="translate(182.975209, 174.280545)"><g><path d="M 3.234375 -0.015625 C 3.097656 -0.015625 3.03125 -0.0820312 3.03125 -0.21875 L 3.03125 -3.53125 C 3.03125 -3.550781 3.023438 -3.582031 3.015625 -3.625 L 0.46875 -8.59375 C 0.4375 -8.632812 0.421875 -8.671875 0.421875 -8.703125 C 0.421875 -8.785156 0.484375 -8.828125 0.609375 -8.828125 L 1.75 -8.828125 C 1.863281 -8.828125 1.945312 -8.773438 2 -8.671875 L 3.71875 -5.203125 C 3.738281 -5.179688 3.757812 -5.171875 3.78125 -5.171875 C 3.800781 -5.171875 3.816406 -5.179688 3.828125 -5.203125 L 5.5625 -8.671875 C 5.613281 -8.773438 5.691406 -8.828125 5.796875 -8.828125 L 6.953125 -8.828125 C 7.078125 -8.828125 7.140625 -8.785156 7.140625 -8.703125 C 7.140625 -8.671875 7.125 -8.632812 7.09375 -8.59375 L 4.53125 -3.625 C 4.507812 -3.570312 4.5 -3.539062 4.5 -3.53125 L 4.5 -0.21875 C 4.5 -0.0820312 4.429688 -0.015625 4.296875 -0.015625 Z M 3.234375 -0.015625 "/></g></g></g></svg>